<?xml version="1.0" standalone="no"?>
<!DOCTYPE svg PUBLIC "-//W3C//DTD SVG 20010904//EN"
 "http://www.w3.org/TR/2001/REC-SVG-20010904/DTD/svg10.dtd">
<svg version="1.0" xmlns="http://www.w3.org/2000/svg"
 width="700.000000pt" height="700.000000pt" viewBox="0 0 700.000000 700.000000"
 preserveAspectRatio="xMidYMid meet">
<metadata>
Created by potrace 1.14, written by Peter Selinger 2001-2017
</metadata>
<g transform="translate(0.000000,700.000000) scale(0.100000,-0.100000)"
fill="#000000" stroke="none">
<path d="M38 6979 c-17 -9 -18 -195 -18 -3494 l1 -3485 3489 0 3490 0 0 3490
0 3490 -1512 1 c-832 0 -1517 1 -1523 1 -5 0 -881 -1 -1946 -1 -1065 -1 -1943
1 -1950 4 -8 2 -22 0 -31 -6z m5172 -2953 c0 -11 -19 -15 -25 -6 -3 5 1 10 9
10 9 0 16 -2 16 -4z"/>
</g>
</svg>
